<mxfile host="app.diagrams.net" agent="Mozilla/5.0 (Macintosh; Intel Mac OS X 10_15_7) AppleWebKit/537.36 (KHTML, like Gecko) Chrome/126.0.0.0 Safari/537.36" version="24.7.7">
  <diagram name="Page-1" id="tIyMZ8VXg5on6ZE0pe44">
    <mxGraphModel dx="552" dy="301" grid="1" gridSize="10" guides="1" tooltips="1" connect="1" arrows="1" fold="1" page="1" pageScale="1" pageWidth="827" pageHeight="1169" math="0" shadow="0">
      <root>
        <mxCell id="0" />
        <mxCell id="1" parent="0" />
        <mxCell id="NW8Unebb9XJBtbpMofdi-16" value="POLLS" style="swimlane;childLayout=stackLayout;horizontal=1;startSize=50;horizontalStack=0;rounded=1;fontSize=14;fontStyle=0;strokeWidth=2;resizeParent=0;resizeLast=1;shadow=0;dashed=0;align=center;arcSize=4;whiteSpace=wrap;html=1;" vertex="1" parent="1">
          <mxGeometry x="10" y="130" width="100" height="160" as="geometry" />
        </mxCell>
        <mxCell id="NW8Unebb9XJBtbpMofdi-17" value="+poll_id - (PK)&lt;br&gt;+question&lt;br&gt;+created_at" style="align=left;strokeColor=none;fillColor=none;spacingLeft=4;fontSize=12;verticalAlign=top;resizable=0;rotatable=0;part=1;html=1;" vertex="1" parent="NW8Unebb9XJBtbpMofdi-16">
          <mxGeometry y="50" width="100" height="110" as="geometry" />
        </mxCell>
        <mxCell id="NW8Unebb9XJBtbpMofdi-19" value="OPTIONS" style="swimlane;childLayout=stackLayout;horizontal=1;startSize=50;horizontalStack=0;rounded=1;fontSize=14;fontStyle=0;strokeWidth=2;resizeParent=0;resizeLast=1;shadow=0;dashed=0;align=center;arcSize=4;whiteSpace=wrap;html=1;" vertex="1" parent="1">
          <mxGeometry x="160" y="130" width="110" height="160" as="geometry">
            <mxRectangle x="160" y="130" width="100" height="50" as="alternateBounds" />
          </mxGeometry>
        </mxCell>
        <mxCell id="NW8Unebb9XJBtbpMofdi-20" value="+option_id&amp;nbsp;- (PK)&lt;br&gt;+poll_id - (FK)&lt;br&gt;+option_text" style="align=left;strokeColor=none;fillColor=none;spacingLeft=4;fontSize=12;verticalAlign=top;resizable=0;rotatable=0;part=1;html=1;" vertex="1" parent="NW8Unebb9XJBtbpMofdi-19">
          <mxGeometry y="50" width="110" height="110" as="geometry" />
        </mxCell>
        <mxCell id="NW8Unebb9XJBtbpMofdi-24" value="VOTES" style="swimlane;childLayout=stackLayout;horizontal=1;startSize=50;horizontalStack=0;rounded=1;fontSize=14;fontStyle=0;strokeWidth=2;resizeParent=0;resizeLast=1;shadow=0;dashed=0;align=center;arcSize=4;whiteSpace=wrap;html=1;" vertex="1" parent="1">
          <mxGeometry x="321" y="130" width="109" height="160" as="geometry" />
        </mxCell>
        <mxCell id="NW8Unebb9XJBtbpMofdi-25" value="+vote_id&amp;nbsp;- (PK)&lt;br&gt;+poll_id - (FK)&lt;br&gt;+option_id - (FK)&lt;div&gt;+&lt;span style=&quot;background-color: initial;&quot;&gt;user_id&lt;/span&gt;&lt;/div&gt;&lt;div&gt;&lt;span style=&quot;background-color: initial;&quot;&gt;+&lt;/span&gt;&lt;span style=&quot;background-color: initial;&quot;&gt;created_at&lt;/span&gt;&lt;/div&gt;" style="align=left;strokeColor=none;fillColor=none;spacingLeft=4;fontSize=12;verticalAlign=top;resizable=0;rotatable=0;part=1;html=1;" vertex="1" parent="NW8Unebb9XJBtbpMofdi-24">
          <mxGeometry y="50" width="109" height="110" as="geometry" />
        </mxCell>
        <mxCell id="NW8Unebb9XJBtbpMofdi-27" value="" style="endArrow=none;dashed=1;html=1;dashPattern=1 3;strokeWidth=2;rounded=0;entryX=-0.029;entryY=0.539;entryDx=0;entryDy=0;entryPerimeter=0;" edge="1" parent="1">
          <mxGeometry width="50" height="50" relative="1" as="geometry">
            <mxPoint x="113.19" y="220.71" as="sourcePoint" />
            <mxPoint x="160.00000000000006" y="220.00000000000009" as="targetPoint" />
          </mxGeometry>
        </mxCell>
        <mxCell id="NW8Unebb9XJBtbpMofdi-28" value="" style="endArrow=none;dashed=1;html=1;dashPattern=1 3;strokeWidth=2;rounded=0;entryX=-0.029;entryY=0.539;entryDx=0;entryDy=0;entryPerimeter=0;" edge="1" parent="1">
          <mxGeometry width="50" height="50" relative="1" as="geometry">
            <mxPoint x="274.19" y="220.71000000000004" as="sourcePoint" />
            <mxPoint x="321.00000000000006" y="220.0000000000001" as="targetPoint" />
          </mxGeometry>
        </mxCell>
      </root>
    </mxGraphModel>
  </diagram>
</mxfile>
